<?xml version="1.0" standalone="no"?>
<!DOCTYPE svg PUBLIC "-//W3C//DTD SVG 20010904//EN"
 "http://www.w3.org/TR/2001/REC-SVG-20010904/DTD/svg10.dtd">
<svg version="1.0" xmlns="http://www.w3.org/2000/svg"
 width="1080.000000pt" height="1080.000000pt" viewBox="0 0 1080.000000 1080.000000"
 preserveAspectRatio="xMidYMid meet">
<metadata>
Created by potrace 1.14, written by Peter Selinger 2001-2017
</metadata>
<g transform="translate(0.000000,1080.000000) scale(0.100000,-0.100000)"
fill="#000000" stroke="none">
<path d="M2150 5400 l0 -5401 2103 4 c1156 3 2122 7 2147 10 25 2 90 7 145 11
55 4 116 9 135 11 19 3 62 7 95 10 53 4 140 15 255 31 19 3 42 7 50 9 8 2 31
7 50 10 126 21 353 89 481 145 440 191 726 490 866 908 37 112 62 201 68 242
2 14 6 39 9 55 16 89 33 212 40 290 3 28 8 73 10 100 3 28 8 88 11 135 3 47 7
114 10 150 3 36 8 137 12 225 11 216 10 5458 0 5710 -11 272 -14 334 -22 445
-3 52 -8 120 -10 150 -8 127 -37 366 -50 410 -2 8 -7 31 -10 50 -31 189 -152
471 -286 672 -202 300 -425 491 -767 655 -202 98 -556 206 -772 236 -19 3 -84
12 -145 21 -60 8 -135 18 -165 21 -30 3 -71 7 -90 10 -19 2 -71 6 -116 10 -44
3 -96 7 -115 9 -19 3 -79 7 -134 11 -55 3 -127 8 -160 10 -33 3 -130 7 -215
11 -85 3 -193 8 -240 11 -47 2 -784 7 -1637 10 l-1553 5 0 -5402z m3065 3545
c131 -12 162 -17 233 -36 131 -35 217 -92 278 -183 51 -78 75 -150 89 -276 4
-30 8 -69 10 -86 15 -127 19 -664 18 -2839 0 -2186 -3 -2684 -18 -2825 -2 -19
-6 -71 -10 -114 -4 -43 -9 -88 -11 -100 -2 -12 -6 -41 -9 -66 -14 -117 -47
-245 -79 -309 -63 -123 -208 -206 -426 -242 -110 -18 -312 -31 -327 -20 -7 4
-11 7072 -4 7102 1 6 167 3 256 -6z"/>
</g>
</svg>
