<svg xmlns="http://www.w3.org/2000/svg" xmlns:xlink="http://www.w3.org/1999/xlink" width="17" height="17"><defs><path id="a" d="M8.5 1.42A7.1 7.1 0 001.42 8.5a7.1 7.1 0 007.08 7.08 7.1 7.1 0 007.08-7.08A7.1 7.1 0 008.5 1.42zm3.4 4.81L9 11.55c-.15.28-.36.42-.64.42h-.07c-.29 0-.5-.07-.64-.28l-2.4-2.7c-.36-.35-.3-.91.06-1.27.36-.35.92-.28 1.28.07l1.56 1.77 2.33-4.25c.15-.35.64-.5 1.07-.2.5.2.63.7.35 1.12z"/></defs><g fill="none" fill-rule="evenodd"><mask id="b" fill="#fff"><use xlink:href="#a"/></mask><g fill="#0095DA" mask="url(#b)"><path d="M0 0h17v17H0z"/></g></g></svg>