<svg xmlns="http://www.w3.org/2000/svg" viewBox="0 0 24 24" fill="#858585"><path d="M16 6.1h-1.4V4.2c0-.8-1-1.5-2.3-1.5h-.5c-1.2 0-2.3.7-2.3 1.5v1.9H8V4.2c0-1.6 1.7-3 3.7-3h.5c2 0 3.7 1.3 3.7 3v1.9z"/><path d="M18 4.8H6a2 2 0 00-2 2V7h1v13c0 1.1.9 2 2 2h10a2 2 0 002-2V6.9h1v-.1a2 2 0 00-2-2zm-9.5 14a.47.47 0 01-.5.5c-.3 0-.5-.3-.5-.5V9.1a.47.47 0 01.5-.5.47.47 0 01.5.5v9.7zm4 0a.47.47 0 01-.5.5.47.47 0 01-.5-.5V9.1a.47.47 0 01.5-.5.47.47 0 01.5.5v9.7zm4 0a.47.47 0 01-.5.5.47.47 0 01-.5-.5V9.1a.47.47 0 01.5-.5.47.47 0 01.5.5v9.7z"/></svg>