<svg xmlns="http://www.w3.org/2000/svg" width="24" height="24"><g fill="none"><path fill="#BDBDBD" d="M3.5 15l-1.4 5.7c-.2.7.5 1.4 1.2 1.2L9 20.5l.9-.9c.5-.5.5-1.4 0-1.9l-3.6-3.6c-.5-.5-1.4-.5-1.9 0l-.9.9z"/><path fill="#858585" d="M9 20.5v-1.8H7.2v-1.8H5.4v-1.8H3.6L15.9 2.6c.8-.8 2-.8 2.8 0l2.7 2.7c.8.8.8 2 0 2.8L9 20.5zm-4.6-.9c-.5-.5-1.2-.8-1.9-.8L2 20.7c-.2.7.5 1.4 1.2 1.2l1.9-.5c.1-.6-.2-1.3-.7-1.8z"/><path fill="#BDBDBD" d="M20 4c-.5-.5-1.3-.5-1.8 0L5.3 16.8h1.8v1.8L20 5.8c.5-.5.5-1.3 0-1.8z"/></g></svg>