<svg xmlns="http://www.w3.org/2000/svg" width="32" height="32"><defs><linearGradient id="a" x1="-80.9%" x2="45.6%" y1="-65.9%" y2="45.9%"><stop offset=".2%" stop-color="#00B3FF"/><stop offset="99.8%" stop-color="#0073AA"/></linearGradient><linearGradient id="b" x1="-12.3%" x2="128.7%" y1="-5.2%" y2="96.4%"><stop offset=".2%" stop-color="#00B3FF"/><stop offset="99.8%" stop-color="#0073AA"/></linearGradient><linearGradient id="c" x1="-7.3%" x2="49%" y1="37.3%" y2="49.4%"><stop offset=".2%" stop-color="#00B3FF"/><stop offset="99.8%" stop-color="#0073AA"/></linearGradient><linearGradient id="d" x1="-29.7%" x2="34.5%" y1="32.2%" y2="46.4%"><stop offset=".2%" stop-color="#00B3FF"/><stop offset="99.8%" stop-color="#0073AA"/></linearGradient><linearGradient id="e" x1="4.8%" x2="89.4%" y1="-26.1%" y2="121.7%"><stop offset=".2%" stop-color="#00B3FF" stop-opacity="0"/><stop offset="99.8%" stop-color="#0073AA"/></linearGradient><linearGradient id="f" x1="98.1%" x2="29.6%" y1="119.2%" y2="8.6%"><stop offset="0%" stop-color="#FF9D15"/><stop offset="100%" stop-color="#F9EC31"/></linearGradient><linearGradient id="h" x1="53.2%" x2="-113.6%" y1="50.7%" y2="9.1%"><stop offset="0%" stop-color="#FF9D15"/><stop offset="100%" stop-color="#F9EC31"/></linearGradient><linearGradient id="i" x1="65.9%" x2="40.1%" y1="160.8%" y2="-3%"><stop offset="0%" stop-color="#FF9D15"/><stop offset="100%" stop-color="#F9EC31" stop-opacity="0"/></linearGradient><radialGradient id="g" cx="50%" cy="50%" r="33.4%" fx="50%" fy="50%" gradientTransform="scale(1 .88078) rotate(38.6 .4 .5)"><stop offset=".3%" stop-color="#FFF" stop-opacity=".6"/><stop offset="100%" stop-color="#FFF" stop-opacity="0"/></radialGradient></defs><g fill="none" fill-rule="evenodd"><g fill-rule="nonzero"><path fill="url(#a)" d="M14 27.8c-.1-.6-.8-1-1.4-.9-.7.2-1.1.7-1 1.3 0 .6.7 1 1.3 1 .7-.2 1.2-.8 1-1.4z" transform="translate(6.8 1.5)"/><path fill="url(#b)" d="M12 24.1c-2 .4-3.9.3-4-.1.8 2.8 2 4.1 2 4.1.4.4 1.5.5 2.8.3 1.4-.3 2.4-.8 2.6-1.3 0-.1.6-1.7.5-4.5 0 .5-1.7 1.2-3.8 1.5z" transform="translate(6.8 1.5)"/><path fill="url(#c)" d="M13.9 25.5c-2.8.5-4.9.1-5.6 0-.1 0-.3-.2-.2-.4 0-.2.2-.3.4-.3.8.2 3.6.7 7.2-.4.2 0 .4 0 .4.2s0 .4-.2.5l-2 .4z" transform="translate(6.8 1.5)"/><path fill="url(#d)" d="M14.2 27.2c-2.3.4-4.1.2-5 0-.2 0-.4-.2-.3-.4 0-.1.2-.3.4-.2 1 .2 3.4.4 6.2-.4.2 0 .4 0 .5.2 0 .2 0 .4-.3.4l-1.5.4z" transform="translate(6.8 1.5)"/><path fill="url(#e)" d="M12.7 23.1l-.2.7c0 .8.3 1.6.5 2.3.1 1 0 2-.5 3h.5c.5 0 1-.5 1-1 .8-.3 1.3-.7 1.4-1v-.3h.3c.1 0 .3-.2.2-.4 0-.2-.2-.3-.3-.3l.2-1 .1-.1c.2 0 .3-.3.2-.5 0 0-.1-.2-.3-.2v-1.7l-3.1.5z" transform="translate(6.8 1.5)"/><path fill="url(#f)" d="M19 8A9.6 9.6 0 10.1 11.5a9.8 9.8 0 004 6.3C6 19 7.5 21.3 8 24l7.7-1.4c-.4-2.6.2-5.2 1.6-7.2 1.4-2 2.1-4.7 1.6-7.3z" transform="translate(6.8 1.5)"/><path fill="url(#g)" d="M6.5 6.8c-1.6 2-3.8 3-5 2-1.2-1-.9-3.4.7-5.4 1.6-2 3.8-3 5-2 1.2.9.9 3.3-.7 5.4z" transform="translate(6.8 1.5)"/><path fill="url(#h)" d="M15.8 22.6c0-.4-1.9-.5-4-.1S8 23.5 8 24c.1.4 2 .5 4 .1s4-1 3.8-1.5z" transform="translate(6.8 1.5)"/><path fill="#FFF" d="M16.9 16.7a1 1 0 01-.7-.1l-4-2.7a1 1 0 01-.3-1.3 1 1 0 011.3-.3l3.2 2L20.2 8c.2-.5.8-.6 1.3-.4.5.3.6.9.4 1.4l-4.3 7.3-.6.5h-.1z"/><path fill="url(#i)" d="M17.4 15.4A9.8 9.8 0 0011.3 0C13 1.8 13.8 4.6 13 7c-.4 1.5-1.4 2.8-1.5 4.3 0 1.9 1.2 3.6 1.9 5.4.6 1.8.5 3.9-.3 5.7-.2.5-.5 1-.5 1.6v.2c1.9-.4 3.4-1 3.3-1.5-.5-2.6.1-5.2 1.5-7.2z" transform="translate(6.8 1.5)"/></g><path d="M0 0h32v32H0z"/></g></svg>