<svg xmlns="http://www.w3.org/2000/svg" xmlns:xlink="http://www.w3.org/1999/xlink" width="18" height="18"><defs><path id="a" d="M9 1.49c-4.13 0-7.5 3.35-7.5 7.46a7.5 7.5 0 0015 0A7.5 7.5 0 009 1.49zm1.13 11.83a2.9 2.9 0 01-1.22.28c-.47 0-.94-.18-1.22-.46a1.2 1.2 0 01-.38-.93v-.47c0-.19.1-.28.1-.56l.56-1.86c.1-.1.1-.28.1-.38 0-.18.09-.27.09-.46 0-.28-.1-.37-.2-.47-.08-.09-.27-.09-.55-.09-.1 0-.28-.56.37-.75.28-.09.56-.18.85-.18.46 0 .93.1 1.12.37.28.28.38.56.38.93v.38c0 .18-.1.37-.1.56L9.47 11c0 .18-.1.27-.1.46s-.09.37-.09.47c0 .28.1.37.19.46.1.1.28.1.56.1.1 0 .28-.2.47-.1.28.37.1.75-.37.93zm-.47-7.08c-.57 0-1.03-.46-1.03-1.02s.46-1.03 1.03-1.03c.56 0 1.03.47 1.03 1.03s-.47 1.02-1.03 1.02z"/></defs><g fill="none" fill-rule="evenodd" transform="translate(0 .94)"><mask id="b" fill="#fff"><use xlink:href="#a"/></mask><g fill="#858585" mask="url(#b)"><path d="M0 0h18v17.89H0z"/></g></g></svg>
