<svg xmlns="http://www.w3.org/2000/svg" viewBox="0 0 16 16"><g fill-rule="nonzero" fill="none"><path d="M13.727 15.364H2.273c-.9 0-1.637-.737-1.637-1.637s.737-1.636 1.637-1.636h11.454c.9 0 1.637.736 1.637 1.636 0 .9-.737 1.637-1.637 1.637z" fill="#858585"/><path d="M13.727 13.727H2.273V.964c0-.246.245-.328.409-.164l.49.573a.614.614 0 00.983 0l.409-.491a.614.614 0 01.981 0l.41.49a.614.614 0 00.981 0l.41-.49a.614.614 0 01.981 0l.41.49a.614.614 0 00.981 0l.41-.49a.614.614 0 01.981 0l.41.49a.614.614 0 00.981 0L12.99.8c.492-.164.737-.082.737.164v12.763z" fill="#BDBDBD"/><path d="M11.273 5.545H4.727c-.49 0-.818-.327-.818-.818 0-.49.327-.818.818-.818h6.546c.49 0 .818.327.818.818 0 .491-.327.818-.818.818zM11.273 8.818H4.727c-.49 0-.818-.327-.818-.818 0-.49.327-.818.818-.818h6.546c.49 0 .818.327.818.818 0 .49-.327.818-.818.818zM8 12.09H4.727c-.49 0-.818-.326-.818-.817 0-.491.327-.818.818-.818H8c.49 0 .818.327.818.818 0 .49-.327.818-.818.818z" fill="#FFF"/></g></svg>