<svg xmlns="http://www.w3.org/2000/svg" width="24" height="24"><g fill="none"><path fill="#BDBDBD" d="M21.1 16.8l-2.5-1.6c-.9-.6-2-.4-2.7.5-.6.8-1.3 1.5-1.9 1.8-1.2.4-4.3-2.6-4.5-2.8-.2-.2-3.2-3.3-2.8-4.5.2-.6 1-1.3 1.8-1.9.8-.6 1-1.8.5-2.7L7.2 2.9c-.5-.9-1.7-1.2-2.6-.6-1.4.8-3 2.6-2.5 6.2C2.5 11 4.4 14.4 7 17c2.6 2.6 6 4.4 8.6 4.8 3.6.6 5.3-1.1 6.2-2.5.5-.8.2-2-.7-2.5z"/><path fill="#858585" d="M7.2 2.9c-.5-.9-1.7-1.2-2.6-.6-.2.1-.4.3-.6.4l3.9 6c.2-.2.4-.3.6-.5.8-.6 1-1.8.4-2.9L7.2 2.9zm13.9 13.9l-2.5-1.6c-.9-.6-2-.4-2.7.5-.1.2-.3.4-.5.6l5.9 3.7c.1-.2.3-.4.5-.6.4-.7.3-1.9-.7-2.6z"/></g></svg>