<svg xmlns="http://www.w3.org/2000/svg" viewBox="0 0 14 14"><g fill="none"><path d="M12.24 6.27c-.51 0-.95-.14-1.31-.43-.37.29-.8.43-1.31.43s-.95-.14-1.31-.43c-.36.29-.8.43-1.31.43s-.94-.14-1.31-.43c-.36.29-.8.43-1.3.43-.52 0-.95-.14-1.32-.43-.36.29-.8.43-1.3.43-.22 0-.37 0-.59-.07v5.45c0 1.1.88 1.9 1.9 1.9h7.85c1.02 0 1.89-.8 1.89-1.9V6.13c-.22.07-.36.14-.58.14zM1.98.46c-.5 0-.94.36-1.02.87L.46 4.3c0 .73.58 1.24 1.3 1.24.73 0 1.31-.51 1.31-1.24l.3-3.85H1.97z" fill="#BDBDBD"/><path d="M3.36.46L3.07 4.3c0 .65.59 1.24 1.31 1.24S5.7 5.04 5.7 4.3V.46H3.36z" fill="#858585"/><path d="M7.95.46H5.69V4.3c0 .73.58 1.24 1.31 1.24s1.31-.51 1.31-1.24L7.94.46z" fill="#BDBDBD"/><path d="M10.27.46H7.95L8.3 4.3c0 .65.58 1.24 1.3 1.24.74 0 1.32-.51 1.32-1.24L10.27.46z" fill="#858585"/><path d="M12.74 1.25c-.07-.5-.5-.8-1.01-.8h-1.46l.66 3.86c0 .65.58 1.24 1.3 1.24.73 0 1.31-.51 1.31-1.24l-.8-3.05z" fill="#BDBDBD"/><path d="M9.18 11.36v-2.9c0-.8-.65-1.46-1.45-1.46H6.27c-.8 0-1.45.66-1.45 1.46v2.9c0 .44.29.73.72.73h2.92c.43 0 .72-.29.72-.73z" fill="#858585"/></g></svg>