<svg xmlns="http://www.w3.org/2000/svg" viewBox="0 0 24 24"><g fill="none"><path fill="#BDBDBD" d="M5.3 7.5v12.6c0 1.1.9 1.9 1.9 1.9h9.6c1.1 0 1.9-.9 1.9-1.9V7.5H5.3zm3.3 11.4c0 .3-.2.5-.5.5s-.5-.3-.5-.5V9.6c0-.3.2-.5.5-.5s.5.2.5.5v9.3zm3.9 0c0 .3-.2.5-.5.5s-.5-.2-.5-.5V9.6c0-.3.2-.5.5-.5s.5.2.5.5v9.3zm3.8 0c0 .3-.2.5-.5.5s-.5-.2-.5-.5V9.6c0-.3.2-.5.5-.5s.5.2.5.5v9.3z"/><path fill="#858585" d="M17.8 5.5H6.2c-1.1 0-1.9.9-1.9 1.9v.2h15.4v-.2c0-1.1-.9-1.9-1.9-1.9z"/><path fill="#858585" d="M15.8 6.7h-1.3V4.9c0-.8-1-1.4-2.2-1.4h-.5c-1.2 0-2.2.7-2.2 1.4v1.8H8.2V4.9C8.2 3.3 9.8 2 11.7 2h.5c1.9 0 3.6 1.2 3.6 2.9v1.8z"/></g></svg>